<?xml version="1.0" encoding="UTF-8"?>
<svg xmlns="http://www.w3.org/2000/svg" version="1.1" xmlns:xlink="http://www.w3.org/1999/xlink" viewBox="0 0 144.48 31.76">
  <!-- Generator: Adobe Illustrator 29.8.3, SVG Export Plug-In . SVG Version: 2.1.1 Build 3)  -->
  <defs>
    <style>
      .st0 {
        fill: url(#linear-gradient2);
      }

      .st1 {
        fill: #00beee;
      }

      .st2 {
        opacity: .05;
      }

      .st2, .st3, .st4, .st5 {
        mix-blend-mode: luminosity;
      }

      .st2, .st5 {
        fill: #162347;
      }

      .st6 {
        fill: url(#linear-gradient1);
      }

      .st7 {
        fill: url(#linear-gradient9);
      }

      .st8 {
        fill: url(#linear-gradient8);
      }

      .st9 {
        fill: #4c4c4c;
      }

      .st3 {
        opacity: .3;
      }

      .st3, .st10, .st4 {
        fill: #bd43a5;
      }

      .st11 {
        isolation: isolate;
      }

      .st12 {
        fill: url(#linear-gradient7);
      }

      .st13 {
        fill: url(#linear-gradient4);
      }

      .st14 {
        fill: url(#linear-gradient5);
      }

      .st15 {
        fill: url(#linear-gradient3);
      }

      .st5 {
        opacity: .1;
      }

      .st16 {
        fill: #e2b52e;
      }

      .st17 {
        fill: url(#linear-gradient6);
      }

      .st18 {
        fill: url(#linear-gradient);
      }
    </style>
    <linearGradient id="linear-gradient" x1="0" y1="18.94" x2="22.66" y2="18.94" gradientUnits="userSpaceOnUse">
      <stop offset="0" stop-color="#00beee"/>
      <stop offset=".66" stop-color="#bd4398"/>
    </linearGradient>
    <linearGradient id="linear-gradient1" x1="-643.92" y1="18.94" x2="-621.26" y2="18.94" gradientTransform="translate(-598.46) rotate(-180) scale(1 -1)" gradientUnits="userSpaceOnUse">
      <stop offset="0" stop-color="#e2b52e"/>
      <stop offset=".67" stop-color="#bd43a5"/>
    </linearGradient>
    <linearGradient id="linear-gradient2" x1="19" y1="3.9" x2="26.67" y2="3.9" gradientUnits="userSpaceOnUse">
      <stop offset=".01" stop-color="#00beee"/>
      <stop offset=".5" stop-color="#bd43a5"/>
      <stop offset="1" stop-color="#e2b52e"/>
    </linearGradient>
    <linearGradient id="linear-gradient3" x1="19.55" y1="2.52" x2="26.12" y2="2.52" gradientUnits="userSpaceOnUse">
      <stop offset=".01" stop-color="#00beee"/>
      <stop offset=".04" stop-color="#12b2e6"/>
      <stop offset=".13" stop-color="#4590d3"/>
      <stop offset=".21" stop-color="#7074c2"/>
      <stop offset=".29" stop-color="#915fb5"/>
      <stop offset=".37" stop-color="#a94fac"/>
      <stop offset=".44" stop-color="#b846a6"/>
      <stop offset=".5" stop-color="#bd43a5"/>
      <stop offset="1" stop-color="#e2b52e"/>
    </linearGradient>
    <linearGradient id="linear-gradient4" x1="21.88" y1="1.85" x2="23.76" y2="1.85" gradientUnits="userSpaceOnUse">
      <stop offset=".21" stop-color="#995ab3"/>
      <stop offset="1" stop-color="#c76185"/>
    </linearGradient>
    <linearGradient id="linear-gradient5" x1="19.73" y1="5.96" x2="25.92" y2="5.96" xlink:href="#linear-gradient2"/>
    <linearGradient id="linear-gradient6" x1="18.25" y1="3.15" x2="20.62" y2="3.15" gradientUnits="userSpaceOnUse">
      <stop offset=".01" stop-color="#00beee"/>
      <stop offset="1" stop-color="#5288ce"/>
    </linearGradient>
    <linearGradient id="linear-gradient7" x1="25.05" y1="3.15" x2="27.42" y2="3.15" gradientUnits="userSpaceOnUse">
      <stop offset="0" stop-color="#d28461"/>
      <stop offset="1" stop-color="#e2b52e"/>
    </linearGradient>
    <linearGradient id="linear-gradient8" x1="19.73" y1="5.49" x2="25.94" y2="5.49" xlink:href="#linear-gradient2"/>
    <linearGradient id="linear-gradient9" x1="19.73" y1="5" x2="25.94" y2="5" xlink:href="#linear-gradient2"/>
  </defs>
  <g class="st11">
    <g id="Layer_1">
      <g>
        <g>
          <g>
            <g>
              <path class="st10" d="M20.63,11.68s1.05.45,1.93,2.08c-.29-1.04-1.1-1.91-1.93-2.08Z"/>
              <path class="st10" d="M24.76,11.68s-1.05.45-1.93,2.08c.29-1.04,1.1-1.91,1.93-2.08Z"/>
            </g>
            <ellipse class="st10" cx="22.7" cy="23.2" rx=".14" ry=".33"/>
          </g>
          <path class="st18" d="M19.34,27c-.14-.16-.28-.3-.41-.44l-.17-.17c-1.27-1.25-2.25-1.76-2.59-1.9.95.25,1.86.83,2.79,1.69.13.12.27.25.4.38.06.06.12.12.18.19.98,1.01,1.99,2.32,3.12,3.88-1.2-2.37-2.26-3.98-3.13-5.11-.95-1.23-1.68-1.88-2.12-2.33-.23-.24-.38-.42-.44-.59-.05-.16-.04-.31.05-.5.06-.06.12-.11.17-.17,1.74-1.69,1.57-2.91,1.21-4.73.13.24,1.06.85,1.18.92-.21-.19-3.15-2.88-2.65-5.38.4-1.99-3.55-4.2-7.53-5.32C5.41,6.32,0,6.12,0,6.12c0,0,.18.04.45.15h0c.86.34,2.71,1.36,3.43,3.98.77,2.81,1.77,6.86,5.39,7.97.97.3,4.08,1.08,5.21,2.62,0,0,0,0-.04,0-.29-.09-2.12-.85-3.59-.32-1.37.43-2.39,1.34-2.74,3.42-.07.42-.09.8-.14,1.18-.04.51-.03,1.09-.03,1.41,0,.23,0,.39.01.48,0,0,0,0,0,0,0,.33-.02.67-.04,1-.01.23-.03.46-.03.68,0,.09.03.19.06.28.03.08.12.12.17.1.05-.01.09-.08.09-.17,0-.1,0-.2,0-.29-.02-.35-.06-.71-.08-1.06,0-.24.02-.47.04-.71,0-.07.04-.14.08-.2.04-.07.13-.07.17,0,.02.03.04.07.05.12.03.13.07.27.08.4.03.33.05.65.06.98,0,.5,0,1.01-.01,1.51-.01.38-.04.75-.07,1.13-.01.2-.03.39-.04.59,0,.09.02.2.06.29.04.11.19.13.27.04.03-.03.06-.08.06-.12,0-.16,0-.32,0-.48-.02-.35-.07-.7-.07-1.05,0-.48.01-.97.03-1.45.01-.25.06-.5.1-.75.02-.12.06-.24.14-.33.03-.03.06-.05.09-.06.05-.01.09,0,.14.05.04.04.07.09.09.14.08.23.1.47.12.7.03.4-.03.8-.06,1.2,0,.12,0,.24.02.36,0,.01,0,.02,0,.03v.03s.02,0,.02,0c.02.05.07.07.12.07.07,0,.12-.04.15-.12,0-.01.01-.03.01-.04,0-.1,0-.2,0-.3-.02-.23-.06-.47-.07-.7-.03-.46-.03-.92.02-1.38.02-.16.04-.33.11-.48.09-.18.28-.21.42-.07.08.07.11.17.14.27.06.23.06.46.05.69-.01.2-.02.39-.03.59,0,.1,0,.2.06.29.05.08.14.07.19,0,.01-.03.03-.06.03-.09,0-.09.02-.18.01-.26-.02-.18-.04-.35-.07-.53-.05-.33-.04-.66,0-.99.03-.21.06-.41.14-.6.03-.06.07-.11.11-.16.06-.06.15-.06.21,0,.04.04.08.09.09.15.04.11.08.23.11.34.09.43.12.87.13,1.31.02.95.02,1.91-.09,2.85-.02.12-.02.24.04.35.08.14.23.15.33.02.03-.04.05-.08.06-.13.05-.15.04-.31.02-.46-.03-.21-.07-.43-.08-.64-.03-.35-.04-.71-.05-1.06-.02-.55-.02-1.1.07-1.65.01-.07.03-.13.06-.19.03-.07.08-.13.17-.13.08,0,.13.05.16.12s.06.13.07.21c.06.24.07.49.07.74,0,.27-.02.53-.02.8,0,.09.01.18.03.27,0,.03.04.06.07.06.03,0,.07-.02.08-.04.02-.05.03-.12.05-.17,0,0,0-.02,0-.02-.05-.01-.01-.04-.01-.06,0-.01.02-.03.02-.04,0-.03,0-.06,0-.09-.02-.22-.06-.44-.06-.66,0-.31,0-.62.02-.92.01-.25.04-.5.13-.73.03-.09.07-.19.15-.26.1-.09.19-.07.26.03.08.12.11.25.14.38.07.3.1.61.11.91.01.35.01.7.01,1.06,0,.24-.02.48-.03.72,0,.06,0,.12.02.18.02.06.08.08.12.03.03-.03.06-.07.06-.12.01-.09.02-.19,0-.28-.01-.14-.04-.27-.05-.41-.02-.38-.03-.77-.05-1.16-.02-.57-.04-1.15.01-1.72,0-.06.02-.12.03-.17.01-.04.03-.09.08-.08.03,0,.06.05.07.08.02.07.03.15.04.23,0,.17,0,.33,0,.49,0,.06.02.12.04.18.02.06.08.07.12.03.03-.03.06-.08.07-.12.04-.12.02-.24,0-.37-.05-.23-.09-.46-.09-.7h0s.01,0,.02,0c0,.07,0,.13.02.2.02.04.04.09.07.12.04.04.1.03.12-.03.01-.04.02-.07.03-.11h0s.2-.04.27.05c0,.35,0,.7-.02,1.05-.02.38-.03.77-.05,1.16,0,.14-.04.28-.05.41,0,.09,0,.19,0,.28,0,.04.03.08.06.12.05.05.11.04.13-.03.02-.06.03-.12.02-.18,0-.24-.02-.48-.03-.72,0-.35,0-.7.01-1.06,0-.31.04-.61.11-.91,0,0,.4-.06.64.24.02.11.03.23.04.34.02.3.03.61.02.92,0,.22-.04.44-.06.66,0,.03,0,.06,0,.09,0,.01.02.03.02.04,0,.02.04.05-.02.06,0,0,0,.02,0,.02.02.06.03.12.05.17.01.03.06.05.08.04.03,0,.06-.04.07-.06.02-.09.03-.18.03-.27,0-.27-.02-.53-.02-.8,0-.25.01-.5.07-.74.02-.07.04-.14.07-.21.03-.07.08-.12.16-.12,0,0,.01,0,.02,0,.03.02.07.03.1.05.02.02.04.05.05.08.02.06.04.13.05.19.09.54.09,1.09.07,1.65,0,.35-.03.71-.05,1.06-.01.22-.05.43-.08.65-.02.16-.03.31.02.46.01.05.03.09.06.13.09.13.25.11.33-.02.06-.11.06-.24.04-.35-.12-.94-.11-1.88-.1-2.82,0,0,.13-.77.82-.21,0,.04,0,.07-.01.11-.03.18-.06.35-.07.53-.01.09,0,.18.01.26,0,.03.02.06.03.09.04.08.14.08.18,0,.06-.09.06-.19.06-.29,0-.09-.01-.19-.02-.28.03-.04.44-.62.75.37,0,.1,0,.19-.02.29-.02.23-.05.47-.07.7,0,.1,0,.2,0,.3,0,.01,0,.03.01.04.03.08.08.12.15.12s.13-.04.14-.13c.02-.12.03-.24.02-.36-.02-.22-.04-.43-.06-.65.02-.04.41-.83.7.39,0,.25.01.5.01.75,0,.35-.05.7-.07,1.05-.01.16,0,.32,0,.48,0,.04.03.08.06.12.08.08.23.07.27-.04.04-.09.06-.19.06-.29,0-.2-.03-.39-.04-.59-.03-.38-.06-.76-.07-1.13,0-.09,0-.19,0-.28,0-.12.07-.32.42-.11.8.6,1.66,1.29,2.57,2.09-.79-1.34-1.58-2.39-2.31-3.22-.08-.09-.16-.18-.23-.26ZM8.17,28.73h.02s0,.09,0,.13h-.02v-.13ZM8.61,31.5s-.03-.01-.03-.02c-.04-.07-.03-.14,0-.21.05.06.05.14.05.21,0,0-.02.03-.03.03ZM8.83,31.14s-.03,0-.04,0c-.04-.19-.02-.39-.02-.59.03.19.06.39.06.59ZM10.61,28.57h.02s.03.07-.03.1c0-.03,0-.07,0-.1ZM13.33,29.17s.02-.02.03-.03c0,0,.02,0,.02.02.03.05,0,.14-.06.19,0-.07,0-.13.01-.18ZM13.3,27.96h0v.38h0v-.38ZM14.11,28.3s.02-.02.02-.02c.01,0,.02.02.03.03,0,.05,0,.11,0,.18-.07-.05-.09-.14-.06-.19ZM14.19,27.48h0v-.38h0v.38ZM9.56,29.98s-.03-.01-.03-.02c0-.03,0-.06-.01-.09.01,0,.02,0,.03,0,.01.03.03.05.03.08,0,0,0,.02-.01.03ZM11.47,31.16c-.06-.05-.05-.27,0-.35.08.12.08.28,0,.35ZM13.63,26.43s0-.06-.01-.09c.02,0,.03,0,.03,0,0,.03,0,.06.01.08,0,0-.02,0-.03,0ZM16.02,30.29c-.09-.07-.09-.23-.01-.35.06.08.07.3.01.35ZM16.86,27.7h.02s0,.06,0,.1c-.06-.03-.05-.06-.03-.1ZM17.96,29.1s-.02.01-.03.02c0-.01-.02-.02-.02-.03,0-.03.02-.06.03-.08.01,0,.02,0,.03,0,0,.03,0,.06-.01.09ZM18.9,30.4c.04.07.05.14.01.21,0,.01-.02.02-.04.02,0,0-.02-.02-.02-.03,0-.07,0-.15.05-.21Z"/>
          <path class="st6" d="M36.06,7.44c-3.99,1.12-7.94,3.33-7.53,5.32.5,2.5-2.44,5.19-2.65,5.38.11-.07,1.05-.68,1.17-.92-.17.88-.3,1.61-.19,2.33.12.82.55,1.62,1.58,2.57.09.19.11.34.05.5-.06.18-.21.35-.44.59-.44.45-1.17,1.1-2.12,2.33-.83,1.07-1.84,2.58-2.97,4.78-.06.11-.11.21-.17.32,1.13-1.57,2.15-2.87,3.12-3.88.06-.06.12-.12.18-.19.13-.13.27-.26.4-.38.93-.86,1.84-1.44,2.8-1.69-.34.14-1.32.65-2.59,1.9l-.17.17c-.13.14-.27.28-.41.44-.08.08-.16.17-.23.26-.73.83-1.51,1.88-2.31,3.22.91-.8,1.77-1.49,2.57-2.09.34-.21.4,0,.42.11,0,.09,0,.19,0,.28-.01.38-.04.75-.07,1.13-.01.19-.04.39-.04.59,0,.09.02.2.06.29.04.11.19.13.27.04.03-.03.06-.08.06-.12,0-.16,0-.32,0-.48-.02-.35-.07-.7-.07-1.05,0-.25,0-.5.01-.75.29-1.22.68-.43.7-.39-.02.22-.04.43-.06.65,0,.12,0,.24.02.36.01.09.07.13.14.13s.12-.04.15-.12c0-.01.01-.03.01-.04,0-.1,0-.2,0-.3-.02-.23-.06-.47-.07-.7,0-.1-.01-.2-.01-.29.3-.99.72-.41.74-.37,0,.09-.01.19-.01.28,0,.1,0,.2.06.29.05.08.14.07.18,0,.01-.03.03-.06.03-.09,0-.09.02-.18.01-.26-.02-.18-.04-.35-.07-.53,0-.04-.01-.07-.01-.11.69-.57.81.2.81.21.02.94.02,1.88-.1,2.82-.02.12-.01.24.04.35.08.14.24.15.33.02.03-.04.05-.08.06-.13.05-.15.04-.31.02-.46-.03-.21-.07-.43-.08-.65-.03-.35-.04-.71-.05-1.06-.01-.55-.02-1.1.07-1.65.01-.07.03-.13.06-.19.01-.03.03-.06.04-.08.03-.02.07-.03.1-.05,0,0,.01,0,.02,0,.08,0,.13.05.16.12.03.07.06.13.08.21.06.24.07.49.07.74,0,.27-.02.53-.02.8,0,.09.01.18.03.27,0,.03.04.06.07.06.03,0,.07-.02.08-.04.03-.05.04-.12.05-.17,0,0,0-.02,0-.02-.05-.01-.01-.04-.01-.06,0-.01.02-.03.02-.04,0-.03,0-.06,0-.09-.02-.22-.06-.44-.06-.66,0-.31,0-.62.02-.92,0-.11.02-.23.03-.34.24-.3.64-.24.64-.24.07.3.1.61.11.91.01.35.01.7,0,1.06,0,.24-.02.48-.02.72,0,.06,0,.12.02.18.02.06.08.08.12.03.03-.03.06-.07.06-.12.01-.09.02-.19,0-.28-.01-.14-.04-.27-.05-.41-.02-.38-.03-.77-.05-1.16-.01-.35-.02-.7-.02-1.05.07-.1.27-.05.27-.05h0s.01.08.02.11c.02.06.08.07.13.03.03-.03.06-.08.07-.12.02-.07.02-.13.02-.2,0,0,.01,0,.02,0h0c0,.24-.05.47-.09.7-.03.12-.05.24,0,.37.01.04.04.09.07.12.04.04.11.03.13-.03.02-.06.03-.12.03-.18,0-.17,0-.33,0-.49,0-.08.02-.16.04-.23,0-.03.04-.08.07-.08.05-.01.07.04.08.08.01.06.03.12.03.17.06.57.04,1.14.01,1.72-.01.38-.03.77-.05,1.16,0,.14-.04.28-.05.41,0,.09,0,.19,0,.28,0,.04.03.08.06.12.05.05.11.04.13-.03.02-.06.02-.12.02-.18,0-.24-.02-.48-.03-.72,0-.35,0-.7,0-1.06.01-.31.04-.61.11-.91.03-.13.06-.27.14-.38.07-.11.16-.12.26-.03.08.07.12.17.15.26.08.24.12.48.13.73.01.3.03.61.02.92,0,.22-.04.44-.06.66,0,.03,0,.06,0,.09,0,.01.02.03.02.04,0,.02.04.05-.02.06,0,0,0,.02,0,.02.01.06.03.12.05.17.01.03.06.05.08.04.03,0,.06-.04.07-.06.02-.09.03-.18.03-.27,0-.27-.02-.53-.02-.8,0-.25.01-.5.07-.74.02-.07.04-.14.07-.21.03-.07.08-.12.16-.12.08,0,.14.06.17.13.02.06.04.13.05.19.09.54.09,1.09.07,1.65-.01.35-.03.71-.05,1.06-.02.22-.06.43-.08.64-.02.16-.03.31.02.46.01.05.03.09.06.13.09.13.25.11.33-.02.06-.11.06-.23.04-.35-.12-.95-.11-1.9-.09-2.85,0-.44.04-.88.12-1.31.02-.12.06-.23.11-.34.02-.05.06-.1.1-.15.06-.06.15-.07.21,0,.04.04.08.1.11.16.09.19.12.39.14.6.04.33.06.66,0,.99-.03.18-.06.35-.07.53-.01.09,0,.18.01.26,0,.03.02.06.03.09.04.08.14.08.18,0,.06-.09.06-.19.06-.29,0-.2-.02-.39-.03-.59-.01-.23-.01-.46.05-.69.03-.1.07-.19.14-.27.15-.14.33-.11.42.07.08.15.09.32.11.48.06.46.06.92.02,1.38-.02.23-.05.47-.07.7,0,.1,0,.2,0,.3,0,.01,0,.03.01.04.03.08.08.12.15.12s.13-.04.14-.13c.02-.12.03-.24.02-.36-.03-.4-.09-.8-.06-1.2.01-.24.03-.48.12-.7.02-.05.06-.1.09-.14.07-.07.16-.07.23,0,.08.09.12.21.14.33.04.25.09.5.1.75.02.48.04.97.03,1.45,0,.35-.05.7-.07,1.05,0,.16,0,.32,0,.48,0,.04.03.08.06.12.07.08.23.07.27-.04.03-.09.06-.19.06-.29,0-.2-.03-.39-.04-.59-.02-.38-.05-.76-.06-1.13-.01-.5-.02-1.01-.01-1.51,0-.33.03-.65.06-.98.01-.13.04-.27.08-.4,0-.04.03-.08.05-.12.04-.07.13-.08.17,0,.04.06.07.13.07.2.02.24.05.47.04.71-.01.35-.05.71-.08,1.06,0,.1,0,.2,0,.29,0,.09.04.15.09.17.06.01.14-.03.17-.1.03-.09.06-.19.06-.28,0-.23-.02-.46-.03-.68-.02-.33-.04-.67-.04-1,0,0,0,0,0,0,0-.09.01-.25,0-.48,0-.31.01-.89-.03-1.41-.04-.38-.07-.76-.13-1.18-.17-1.04-.52-1.79-.99-2.33h0c-.47-.54-1.06-.88-1.75-1.09-1.61-.58-3.68.4-3.63.33.69-.94,2.14-1.6,3.37-2.04.77-.28,1.46-.46,1.84-.58,3.63-1.11,4.62-5.16,5.39-7.97.72-2.62,2.56-3.64,3.43-3.98h0c.28-.11.45-.15.45-.15,0,0-5.41.21-9.4,1.32ZM26.6,30.61s-.02.03-.02.03c-.01,0-.03-.01-.03-.02-.04-.07-.03-.14,0-.21.05.06.05.14.05.21ZM27.53,29.12s-.03-.01-.03-.02c0-.03,0-.06-.01-.09.01,0,.02,0,.03,0,.01.03.02.05.03.08,0,0,0,.02-.02.03ZM28.6,27.7s.03.07-.03.1c0-.03,0-.07,0-.1h.02ZM31.3,28.31s.01-.02.03-.03c0,0,.02,0,.02.02.03.05,0,.14-.06.19,0-.07,0-.13.01-.18ZM31.27,27.1h0v.38h0v-.38ZM32.08,29.16s.02-.02.03-.02c.01,0,.02.02.03.03,0,.05,0,.11,0,.18-.07-.05-.09-.14-.06-.19ZM34.83,28.57h.02s0,.06,0,.1c-.06-.03-.05-.06-.03-.1ZM37.3,28.86h-.03s0-.09,0-.13h.02v.13ZM36.88,31.26c.04.07.05.14.01.21,0,.01-.02.02-.04.02,0,0-.02-.02-.02-.03,0-.07,0-.15.05-.21ZM36.66,31.15s-.02,0-.03,0c0-.2.03-.39.06-.59,0,.2.02.4-.02.59ZM29.44,30.29c-.06-.05-.05-.27,0-.35.08.12.08.28,0,.35ZM31.83,26.43s-.03,0-.03,0c0-.03,0-.06.01-.08,0,0,0,0,.03,0,0,.04,0,.07-.01.09ZM33.99,31.16c-.09-.07-.09-.23-.01-.35.06.08.07.3.01.35ZM35.94,29.87s0,.06-.01.09c0,0-.02.01-.03.02,0-.01-.02-.02-.02-.03,0-.03.02-.06.03-.08.01,0,.02,0,.03,0Z"/>
          <path class="st4" d="M18.41,17.21c.13.24,1.06.85,1.17.92-.21-.2-3.15-2.89-2.65-5.38.4-1.99-3.55-4.2-7.53-5.32C5.41,6.32,0,6.12,0,6.12c0,0,.18.04.45.15h0c1.38.36,5.92,1.12,7.5,4.37,1.75,3.63,1.21,6.14,5.56,9.3.92.64,2.71,2.64,3.89,3.26l-.25-.27c-.23-.29-.29-.51-.14-.82,1.92-1.78,1.76-3.02,1.39-4.9Z"/>
          <path class="st3" d="M27.06,17.21c-.13.24-1.06.85-1.17.92.21-.2,3.15-2.89,2.65-5.38-.4-1.99,3.55-4.2,7.53-5.32,3.99-1.12,9.4-1.32,9.4-1.32,0,0-.18.04-.45.15h0c-1.38.36-5.92,1.12-7.5,4.37-1.75,3.63-1.21,6.14-5.56,9.3-.92.64-2.71,2.64-3.89,3.26l.25-.27c.23-.29.29-.51.14-.82-1.92-1.78-1.76-3.02-1.39-4.9Z"/>
          <path class="st4" d="M19.57,27.27c.73.83,1.51,1.88,2.31,3.22-.91-.8-1.77-1.49-2.57-2.09-.34-.21-.41,0-.42.11,0,.09,0,.19,0,.28.01.38.04.75.07,1.13.01.19.03.39.04.59,0,.09-.02.2-.06.29-.04.11-.19.13-.27.04-.03-.03-.06-.08-.06-.12,0-.16,0-.32,0-.48.02-.35.06-.7.07-1.05,0-.25,0-.5-.01-.75-.29-1.22-.68-.43-.7-.39.02.22.04.43.06.65,0,.12,0,.24-.02.36-.01.09-.07.13-.14.13s-.12-.04-.15-.12c0-.01-.01-.03-.01-.04,0-.1,0-.2,0-.3.02-.23.06-.47.07-.7,0-.1.01-.2.02-.29-.3-.99-.72-.41-.75-.37,0,.09.01.19.02.28,0,.1,0,.2-.06.29-.05.08-.14.07-.18,0-.01-.03-.03-.06-.03-.09,0-.09-.02-.18-.01-.26.02-.18.04-.35.07-.53,0-.04,0-.07.01-.11-.69-.57-.81.2-.82.21-.02.94-.02,1.88.1,2.82.02.12.02.24-.04.35-.08.14-.24.15-.33.02-.03-.04-.05-.08-.06-.13-.04-.15-.04-.31-.02-.46.03-.21.07-.43.08-.65.03-.35.04-.71.05-1.06.02-.55.02-1.1-.07-1.65-.01-.07-.03-.13-.05-.19-.01-.03-.03-.06-.05-.08-.03-.02-.07-.03-.1-.05,0,0-.01,0-.02,0-.08,0-.13.05-.16.12-.03.07-.06.13-.07.21-.06.24-.07.49-.07.74,0,.27.01.53.02.8,0,.09-.01.18-.03.27,0,.03-.04.06-.07.06-.03,0-.07-.02-.08-.04-.02-.05-.03-.12-.05-.17,0,0,0-.02,0-.02.05-.01.02-.04.02-.06,0-.01-.02-.03-.02-.04,0-.03,0-.06,0-.09.02-.22.06-.44.06-.66,0-.31,0-.62-.02-.92,0-.11-.02-.23-.04-.34-.24-.3-.64-.24-.64-.24-.07.3-.1.61-.11.91-.01.35-.01.7-.01,1.06,0,.24.02.48.03.72,0,.06,0,.12-.02.18-.02.06-.08.08-.13.03-.03-.03-.06-.07-.06-.12-.01-.09-.02-.19,0-.28,0-.14.04-.27.05-.41.02-.38.03-.77.05-1.16.01-.35.02-.7.02-1.05-.07-.1-.27-.05-.27-.05h0s-.01.08-.03.11c-.02.06-.08.07-.12.03-.03-.03-.06-.08-.07-.12-.02-.07-.02-.13-.02-.2,0,0-.01,0-.02,0h0c0,.24.05.47.09.7.03.12.05.24,0,.37-.02.04-.04.09-.07.12-.04.04-.11.03-.12-.03-.02-.06-.03-.12-.04-.18,0-.17,0-.33,0-.49,0-.08-.02-.16-.04-.23-.01-.03-.04-.08-.07-.08-.05-.01-.07.04-.08.08-.02.06-.03.12-.03.17-.05.57-.03,1.14-.01,1.72.02.38.03.77.05,1.16,0,.14.04.28.05.41,0,.09,0,.19,0,.28,0,.04-.03.08-.06.12-.04.05-.1.04-.12-.03-.02-.06-.03-.12-.02-.18,0-.24.02-.48.03-.72,0-.35,0-.7-.01-1.06,0-.31-.04-.61-.11-.91-.03-.13-.06-.27-.14-.38-.07-.11-.17-.12-.26-.03-.08.07-.12.17-.15.26-.08.24-.11.48-.13.73-.02.3-.03.61-.02.92,0,.22.04.44.06.66,0,.03,0,.06,0,.09,0,.01-.02.03-.02.04,0,.02-.04.05.01.06,0,0,0,.02,0,.02-.02.06-.03.12-.05.17-.01.03-.06.05-.08.04-.03,0-.06-.04-.07-.06-.02-.09-.03-.18-.03-.27,0-.27.02-.53.02-.8,0-.25-.01-.5-.07-.74-.02-.07-.04-.14-.07-.21s-.08-.12-.16-.12c-.09,0-.14.06-.17.13-.02.06-.04.13-.06.19-.09.54-.09,1.09-.07,1.65,0,.35.03.71.05,1.06.01.22.05.43.08.64.02.16.03.31-.02.46-.01.05-.03.09-.06.13-.09.13-.25.11-.33-.02-.06-.11-.06-.23-.04-.35.12-.95.11-1.9.09-2.85,0-.44-.04-.88-.13-1.31-.02-.12-.06-.23-.11-.34-.02-.05-.06-.1-.09-.15-.06-.06-.15-.07-.21,0-.05.04-.08.1-.11.16-.09.19-.12.39-.14.6-.04.33-.06.66,0,.99.03.18.06.35.07.53,0,.09,0,.18-.01.26,0,.03-.02.06-.03.09-.04.08-.14.08-.19,0-.06-.09-.06-.19-.06-.29,0-.2.02-.39.03-.59.01-.23.01-.46-.05-.69-.03-.1-.06-.19-.14-.27-.15-.14-.33-.11-.42.07-.08.15-.09.32-.11.48-.06.46-.06.92-.02,1.38.01.23.05.47.07.7.01.1,0,.2,0,.3,0,.01,0,.03-.01.04-.03.08-.08.12-.15.12-.05,0-.09-.02-.12-.07h0s-.01-.03-.01-.03c0,0,0-.02,0-.03-.02-.12-.03-.24-.02-.36.03-.4.09-.8.06-1.2-.02-.24-.03-.48-.12-.7-.02-.05-.05-.1-.09-.14-.04-.04-.09-.06-.14-.05.07-2.8.84-7.46,5.28-6.64.01,0,.03,0,.04,0,1,.19,1.91.58,2.71,1.11-.06.06-.11.11-.17.17-.09.19-.11.34-.05.5.06.18.21.35.44.59.44.45,1.16,1.1,2.12,2.33.87,1.13,1.93,2.73,3.13,5.11-1.13-1.57-2.14-2.87-3.12-3.88-.06-.06-.12-.12-.18-.19-.13-.13-.26-.26-.4-.38-.93-.86-1.84-1.44-2.79-1.69.34.14,1.32.65,2.59,1.9l.17.17c.14.14.27.28.41.44.08.08.16.17.23.26Z"/>
          <path class="st3" d="M25.89,27.27c-.73.83-1.51,1.88-2.31,3.22.91-.8,1.77-1.49,2.57-2.09.34-.21.41,0,.42.11,0,.09,0,.19,0,.28-.01.38-.04.75-.07,1.13-.01.19-.03.39-.04.59,0,.09.02.2.06.29.04.11.19.13.27.04.03-.03.06-.08.06-.12,0-.16,0-.32,0-.48-.02-.35-.06-.7-.07-1.05,0-.25,0-.5.01-.75.29-1.22.68-.43.7-.39-.02.22-.04.43-.06.65,0,.12,0,.24.02.36.01.09.07.13.14.13s.12-.04.15-.12c0-.01.01-.03.01-.04,0-.1,0-.2,0-.3-.02-.23-.06-.47-.07-.7,0-.1-.01-.2-.02-.29.3-.99.72-.41.75-.37,0,.09-.01.19-.02.28,0,.1,0,.2.06.29.05.08.14.07.18,0,.01-.03.03-.06.03-.09,0-.09.02-.18.01-.26-.02-.18-.04-.35-.07-.53,0-.04,0-.07-.01-.11.69-.57.81.2.82.21.02.94.02,1.88-.1,2.82-.02.12-.02.24.04.35.08.14.24.15.33.02.03-.04.05-.08.06-.13.04-.15.04-.31.02-.46-.03-.21-.07-.43-.08-.65-.03-.35-.04-.71-.05-1.06-.02-.55-.02-1.1.07-1.65.01-.07.03-.13.05-.19.01-.03.03-.06.05-.08.03-.02.07-.03.1-.05,0,0,.01,0,.02,0,.08,0,.13.05.16.12.03.07.06.13.07.21.06.24.07.49.07.74,0,.27-.01.53-.02.8,0,.09.01.18.03.27,0,.03.04.06.07.06.03,0,.07-.02.08-.04.02-.05.03-.12.05-.17,0,0,0-.02,0-.02-.05-.01-.02-.04-.02-.06,0-.01.02-.03.02-.04,0-.03,0-.06,0-.09-.02-.22-.06-.44-.06-.66,0-.31,0-.62.02-.92,0-.11.02-.23.04-.34.24-.3.64-.24.64-.24.07.3.1.61.11.91.01.35.01.7.01,1.06,0,.24-.02.48-.03.72,0,.06,0,.12.02.18.02.06.08.08.13.03.03-.03.06-.07.06-.12.01-.09.02-.19,0-.28,0-.14-.04-.27-.05-.41-.02-.38-.03-.77-.05-1.16-.01-.35-.02-.7-.02-1.05.07-.1.27-.05.27-.05h0s.01.08.03.11c.02.06.08.07.12.03.03-.03.06-.08.07-.12.02-.07.02-.13.02-.2,0,0,.01,0,.02,0h0c0,.24-.05.47-.09.7-.03.12-.05.24,0,.37.02.04.04.09.07.12.04.04.11.03.12-.03.02-.06.03-.12.04-.18,0-.17,0-.33,0-.49,0-.08.02-.16.04-.23.01-.03.04-.08.07-.08.05-.01.07.04.08.08.02.06.03.12.03.17.05.57.03,1.14.01,1.72-.02.38-.03.77-.05,1.16,0,.14-.04.28-.05.41,0,.09,0,.19,0,.28,0,.04.03.08.06.12.04.05.1.04.12-.03.02-.06.03-.12.02-.18,0-.24-.02-.48-.03-.72,0-.35,0-.7.01-1.06,0-.31.04-.61.11-.91.03-.13.06-.27.14-.38.07-.11.17-.12.26-.03.08.07.12.17.15.26.08.24.11.48.13.73.02.3.03.61.02.92,0,.22-.04.44-.06.66,0,.03,0,.06,0,.09,0,.01.02.03.02.04,0,.02.04.05-.01.06,0,0,0,.02,0,.02.02.06.03.12.05.17.01.03.06.05.08.04.03,0,.06-.04.07-.06.02-.09.03-.18.03-.27,0-.27-.02-.53-.02-.8,0-.25.01-.5.07-.74.02-.07.04-.14.07-.21s.08-.12.16-.12c.09,0,.14.06.17.13.02.06.04.13.06.19.09.54.09,1.09.07,1.65,0,.35-.03.71-.05,1.06-.01.22-.05.43-.08.64-.02.16-.03.31.02.46.01.05.03.09.06.13.09.13.25.11.33-.02.06-.11.06-.23.04-.35-.12-.95-.11-1.9-.09-2.85,0-.44.04-.88.13-1.31.02-.12.06-.23.11-.34.02-.05.06-.1.09-.15.06-.06.15-.07.21,0,.05.04.08.1.11.16.09.19.12.39.14.6.04.33.06.66,0,.99-.03.18-.06.35-.07.53,0,.09,0,.18.01.26,0,.03.02.06.03.09.04.08.14.08.19,0,.06-.09.06-.19.06-.29,0-.2-.02-.39-.03-.59-.01-.23-.01-.46.05-.69.03-.1.06-.19.14-.27.15-.14.33-.11.42.07.08.15.09.32.11.48.06.46.06.92.02,1.38-.01.23-.05.47-.07.7-.01.1,0,.2,0,.3,0,.01,0,.03.01.04.03.08.08.12.15.12.05,0,.09-.02.12-.07h0s.01-.03.01-.03c0,0,0-.02,0-.03.02-.12.03-.24.02-.36-.03-.4-.09-.8-.06-1.2.02-.24.03-.48.12-.7.02-.05.05-.1.09-.14.04-.04.09-.06.14-.05-.07-2.8-.84-7.46-5.28-6.64-.01,0-.03,0-.04,0-1,.19-1.91.58-2.71,1.11.06.06.11.11.17.17.09.19.11.34.05.5-.06.18-.21.35-.44.59-.44.45-1.16,1.1-2.12,2.33-.87,1.13-1.93,2.73-3.13,5.11,1.13-1.57,2.14-2.87,3.12-3.88.06-.06.12-.12.18-.19.13-.13.26-.26.4-.38.93-.86,1.84-1.44,2.79-1.69-.34.14-1.32.65-2.59,1.9l-.17.17c-.14.14-.27.28-.41.44-.08.08-.16.17-.23.26Z"/>
          <path class="st2" d="M37.5,26.51s-2.84-8.98-11.34,0c0,0-.01.02-.02.03,0,0-.01.01-.02.02-.84.9-1.75,1.97-2.71,3.25-.07.09-.13.17-.19.26-.14.19-.28.38-.42.58,0,0,0-.01.01-.03,0,0,0-.01.01-.02.05-.09.09-.18.14-.27,1.13-2.2,2.13-3.71,2.97-4.78.95-1.23,1.68-1.88,2.12-2.33.23-.24.38-.42.44-.59,0-.02.01-.04.02-.06.83-.71,1.58-1.32,2.49-1.71,0,0,.02,0,.02,0,.48-.21,1.01-.36,1.62-.44h0c.31-.04.63-.06.99-.06h0c.32.01.65.07.96.18.68.21,1.28.55,1.75,1.09h0c.47.54.81,1.29.99,2.33.07.42.09.8.13,1.18.04.51.03,1.09.03,1.41Z"/>
          <path class="st2" d="M7.96,26.52s2.84-8.98,11.34,0c0,0,.01.02.02.03,0,0,.01.01.02.02.84.9,1.75,1.97,2.71,3.25.07.09.13.17.19.26.14.19.28.38.42.58,0,0,0-.01-.01-.03,0,0,0-.01-.01-.02-.05-.09-.09-.18-.14-.27-1.13-2.2-2.13-3.71-2.97-4.78-.95-1.23-1.68-1.88-2.12-2.33-.23-.24-.38-.42-.44-.59,0-.02-.01-.04-.02-.06-.83-.71-1.58-1.32-2.49-1.71,0,0-.02,0-.02,0-.48-.21-1.01-.36-1.62-.44h0c-.31-.04-.63-.06-.99-.06h0c-.32.01-.65.07-.96.18-.68.21-1.28.55-1.75,1.09h0c-.47.54-.81,1.29-.99,2.33-.07.42-.09.8-.13,1.18-.04.51-.03,1.09-.03,1.41Z"/>
          <path class="st5" d="M45.46,6.12s0,0,0,0c-5.81.89-14.93,3.41-15.8,7.21-.41,1.78-1.69,3.1-2.6,3.91-.01.01-.03.02-.04.04-.33.29-.63.52-.83.66-.04.02-.07.05-.1.07-.04.03-.08.06-.12.08h0s-.05.03-.07.04c.27-.25,3.14-2.91,2.64-5.38-.4-1.99,3.55-4.2,7.53-5.31.1-.03.2-.06.31-.08,3.18-.84,7.13-1.13,8.55-1.21h.02c.34-.02.53-.03.53-.03Z"/>
          <path class="st5" d="M0,6.12s0,0,0,0c5.81.89,14.93,3.41,15.8,7.21.41,1.78,1.69,3.1,2.6,3.91.01.01.03.02.04.04.33.29.63.52.83.66.04.02.07.05.1.07.04.03.08.06.12.08h0s.05.03.07.04c-.27-.25-3.14-2.91-2.64-5.38.4-1.99-3.55-4.2-7.53-5.31-.1-.03-.2-.06-.31-.08-3.18-.84-7.13-1.13-8.55-1.21h-.02c-.34-.02-.53-.03-.53-.03Z"/>
          <g>
            <path class="st0" d="M20.15,4.58c.24-.59.47-1.17.71-1.76.49.54.97,1.06,1.47,1.6.17-.32.33-.62.51-.96.17.33.34.63.51.96.49-.53.97-1.06,1.47-1.6.24.6.47,1.18.71,1.78.38-.34.75-.66,1.12-.99,0,0,.02.01.02.02-.24.45-.48.9-.72,1.35-.25-.21-.56-.22-.85-.27-1.2-.17-2.42-.17-3.63-.1-.49.03-.97.13-1.45.2-.11.02-.21.09-.33.14-.23-.43-.47-.88-.71-1.33,0,0,.02-.01.02-.02.37.32.74.64,1.13.97Z"/>
            <path class="st15" d="M20.23,1.82c-.15.47-.29.92-.43,1.39-.09-.09-.17-.15-.23-.23-.02-.02-.02-.08,0-.12.15-.58.3-1.16.47-1.77.72.76,1.42,1.51,2.15,2.27.22-.42.44-.82.67-1.25.22.42.44.83.67,1.25.72-.76,1.42-1.5,2.14-2.27.06.24.12.46.18.68.09.35.18.7.28,1.04.03.1.02.17-.07.24-.05.04-.08.11-.12.17-.02-.01-.03-.02-.05-.03-.14-.45-.28-.9-.43-1.37-.68.72-1.34,1.42-2.01,2.13-.2-.36-.39-.71-.6-1.09-.2.37-.4.72-.6,1.09-.67-.71-1.33-1.41-2.01-2.13Z"/>
            <path class="st13" d="M23.56,2.87c-.25-.45-.48-.86-.72-1.3-.24.43-.47.85-.71,1.28-.08-.09-.16-.17-.24-.26.31-.57.62-1.15.95-1.75.04.06.06.1.08.14.27.5.54,1,.81,1.5.05.1.06.16-.03.23-.05.04-.08.1-.14.17Z"/>
            <path class="st14" d="M24.37,6.36c.44-.12.91-.11,1.32-.34v-.05c-.05-.02-.1-.06-.16-.07-.35-.05-.7-.1-1.05-.13-.91-.06-1.83-.09-2.75-.03-.5.04-.99.08-1.48.13-.09,0-.17.05-.26.07,0,.02,0,.03,0,.05.06.04.12.09.19.11.29.07.59.13.89.19.08.02.16.03.24.06-.2-.02-.4-.03-.6-.06-.25-.04-.49-.1-.74-.15-.05-.01-.1-.04-.14-.06-.12-.07-.13-.15,0-.21.17-.07.36-.13.54-.16,1.07-.16,2.16-.2,3.24-.14.56.03,1.12.08,1.68.14.18.02.35.08.52.14.05.02.1.08.11.13,0,.03-.07.1-.11.11-.28.07-.55.14-.83.2-.2.04-.41.04-.61.07Z"/>
            <path class="st17" d="M20.39,2.35c.08.09.15.15.21.23.02.02.02.07.01.1-.18.48-.36.95-.54,1.43,0,0-.01.01-.03.03-.04-.03-.08-.06-.11-.1-.43-.39-.87-.77-1.3-1.17-.06-.05-.1-.13-.14-.2-.09-.16-.18-.33-.24-.51.55.5,1.11,1,1.67,1.51.16-.44.31-.87.47-1.32Z"/>
            <path class="st12" d="M25.61,4.15c-.11-.3-.22-.58-.33-.86-.07-.18-.13-.37-.21-.55-.04-.08-.04-.14.04-.21.06-.05.1-.11.17-.18.16.45.31.88.47,1.32.57-.51,1.12-1.01,1.67-1.51-.14.27-.22.57-.46.78-.41.35-.8.72-1.2,1.07-.04.04-.09.08-.15.13Z"/>
            <path class="st8" d="M25.92,5.77c-.75-.3-1.54-.34-2.32-.36-.69-.02-1.37-.01-2.06.03-.48.03-.96.13-1.43.21-.12.02-.24.08-.36.12-.05-.11,0-.18.11-.21.34-.08.67-.19,1.01-.23,1.13-.14,2.27-.12,3.4-.05.45.03.89.13,1.34.2.08.01.15.05.22.08.09.03.13.1.09.21Z"/>
            <path class="st7" d="M19.74,5.26c-.04-.1,0-.17.1-.19.29-.08.58-.17.88-.21,1.04-.14,2.09-.14,3.14-.09.55.02,1.1.06,1.64.19.11.03.23.07.34.11.09.03.13.1.09.21-.37-.17-.77-.24-1.17-.28-.94-.11-1.88-.13-2.82-.07-.52.03-1.04.1-1.56.17-.21.03-.41.11-.62.17Z"/>
            <path class="st10" d="M23.13.3c0,.17-.14.31-.29.31-.15,0-.29-.14-.29-.3,0-.17.13-.31.29-.31.16,0,.29.13.29.3ZM22.81.28c.05-.06.09-.1.09-.13,0-.03-.05-.08-.09-.09-.02,0-.08.05-.08.08,0,.03.04.07.08.14Z"/>
            <path class="st1" d="M20.14.62c0,.16-.11.28-.26.28-.15,0-.27-.13-.27-.28,0-.15.12-.27.26-.28.15,0,.27.11.27.28ZM19.93.63c.04-.06.07-.1.07-.13,0-.03-.05-.05-.08-.08-.03.03-.07.06-.08.09,0,.02.04.06.09.12Z"/>
            <path class="st16" d="M25.79.35c.15,0,.27.12.27.28,0,.16-.12.28-.27.28-.15,0-.26-.12-.26-.28,0-.16.11-.28.26-.28ZM25.89.51c-.07-.04-.1-.08-.14-.08-.03,0-.06.05-.09.07.03.03.05.08.09.09.03,0,.07-.04.14-.08Z"/>
            <path class="st1" d="M18.18,1.62c0,.15-.11.27-.25.27-.14,0-.25-.12-.25-.26,0-.14.11-.26.24-.26.14,0,.26.11.26.26ZM17.98,1.4s-.08.08-.07.1c.01.03.05.05.08.08.02-.03.06-.05.06-.08,0-.03-.04-.05-.07-.1Z"/>
            <path class="st16" d="M27.48,1.63c0-.15.11-.27.25-.27.14,0,.25.12.25.27,0,.14-.11.26-.24.26-.14,0-.26-.11-.26-.26ZM27.7,1.4s-.08.08-.07.1c.01.03.05.05.08.08.02-.03.06-.05.06-.08,0-.03-.04-.05-.08-.1Z"/>
          </g>
        </g>
        <g>
          <path class="st9" d="M47.73,25.63l-3.26-11.66h2.42l2.23,8.64,2.43-8.64h1.97l2.45,8.64,2.23-8.64h2.42l-3.26,11.66h-2.61l-2.2-7.69-2.18,7.69h-2.61Z"/>
          <path class="st9" d="M67.16,17.3h2.15v8.33h-2.15v-.98c-.64.81-1.55,1.22-2.71,1.22s-2.06-.42-2.86-1.27c-.79-.85-1.19-1.89-1.19-3.12s.4-2.27,1.19-3.12c.79-.85,1.75-1.27,2.86-1.27,1.17,0,2.07.41,2.71,1.22v-.98ZM63.2,23.15c.43.44.98.66,1.65.66s1.22-.22,1.66-.66c.44-.44.66-1,.66-1.69s-.22-1.25-.66-1.69c-.44-.44-.99-.66-1.66-.66s-1.22.22-1.65.66c-.43.44-.65,1-.65,1.69s.22,1.25.65,1.69Z"/>
          <path class="st9" d="M78.94,25.63h-2.48l-1.8-2.53-1.82,2.53h-2.48l3.05-4.25-2.91-4.08h2.48l1.68,2.35,1.68-2.35h2.46l-2.91,4.06,3.05,4.26Z"/>
          <path class="st9" d="M87.15,19.58c1.02.59,1.53,1.48,1.53,2.67,0,.99-.35,1.8-1.05,2.43-.7.63-1.56.95-2.58.95h-4.95v-11.66h4.6c1,0,1.84.31,2.52.92.68.62,1.02,1.4,1.02,2.36s-.37,1.74-1.1,2.33ZM84.7,16.12h-2.3v2.56h2.3c.36,0,.65-.12.89-.37s.36-.55.36-.92-.12-.67-.35-.92-.53-.37-.9-.37ZM85.05,23.48c.39,0,.71-.13.97-.39.26-.26.38-.59.38-.99s-.13-.71-.38-.97c-.26-.26-.58-.39-.97-.39h-2.65v2.75h2.65Z"/>
          <path class="st9" d="M95.76,17.3h2.15v8.33h-2.15v-.93c-.52.78-1.35,1.17-2.48,1.17-.91,0-1.66-.31-2.26-.92-.59-.61-.89-1.45-.89-2.53v-5.11h2.15v4.85c0,.56.15.98.45,1.27.3.29.7.44,1.2.44.55,0,1-.17,1.33-.52.33-.34.5-.86.5-1.55v-4.5Z"/>
          <path class="st9" d="M104.64,19.36h-1.88v3.46c0,.29.07.5.22.63.14.13.36.21.63.22s.62.01,1.03,0v1.95c-1.48.17-2.52.03-3.12-.42-.61-.44-.91-1.24-.91-2.38v-3.46h-1.45v-2.07h1.45v-1.68l2.15-.65v2.33h1.88v2.07Z"/>
          <path class="st9" d="M110.6,19.36h-1.88v3.46c0,.29.07.5.22.63.14.13.36.21.63.22s.62.01,1.03,0v1.95c-1.48.17-2.52.03-3.12-.42-.61-.44-.91-1.24-.91-2.38v-3.46h-1.45v-2.07h1.45v-1.68l2.15-.65v2.33h1.88v2.07Z"/>
          <path class="st9" d="M113.68,22.35c.29,1.04,1.07,1.57,2.35,1.57.82,0,1.44-.28,1.87-.83l1.73,1c-.82,1.19-2.03,1.78-3.63,1.78-1.38,0-2.48-.42-3.31-1.25s-1.25-1.88-1.25-3.15.41-2.3,1.23-3.14c.82-.84,1.88-1.26,3.16-1.26,1.22,0,2.23.42,3.02,1.27.79.84,1.19,1.89,1.19,3.13,0,.28-.03.57-.08.88h-6.28ZM113.65,20.68h4.25c-.12-.57-.38-.99-.76-1.27-.38-.28-.82-.42-1.31-.42-.58,0-1.06.15-1.43.44-.38.29-.63.71-.75,1.24Z"/>
          <path class="st9" d="M123.69,18.73c.2-.53.53-.93.99-1.2.46-.27.97-.4,1.54-.4v2.4c-.66-.08-1.24.06-1.76.4-.52.34-.77.92-.77,1.72v3.98h-2.15v-8.33h2.15v1.43Z"/>
          <path class="st9" d="M131.95,13.73c.72,0,1.67.12,2.83.35v11.54h-2.15v-9.99c-.16-.01-.38-.02-.68-.02-1.18,0-1.77.53-1.77,1.6v.08h1.38v2.07h-1.38v6.26h-2.15v-6.26h-1.2v-2.07h1.2v-.08c0-2.32,1.3-3.48,3.91-3.48Z"/>
          <path class="st9" d="M142.18,17.3h2.3l-3.03,8.33c-.43,1.2-1.01,2.07-1.72,2.61s-1.61.78-2.67.72v-2c.58.01,1.04-.11,1.37-.37.34-.26.61-.67.81-1.23l-3.41-8.06h2.35l2.16,5.6,1.85-5.6Z"/>
        </g>
      </g>
    </g>
  </g>
</svg>